<svg width="257" height="48" viewBox="0 0 257 48" fill="none" xmlns="http://www.w3.org/2000/svg">
<g clip-path="url(#clip0_37_10)">
<path d="M43.5048 11.2929C42.7663 10.2643 41.8887 9.49286 40.9041 8.72143C40.7864 8.63572 38.9456 7.22143 36.2272 6.48214C36.056 6.26786 35.8633 6.05357 35.6707 5.86071C34.1938 4.38214 32.3209 3.45 30.2875 3.15C28.4467 1.21071 25.8567 0 22.9992 0C20.131 0 17.5518 1.21071 15.7217 3.15C13.6882 3.46071 11.8153 4.39286 10.3384 5.86071C10.1672 6.03214 10.0174 6.20357 9.86753 6.38571C7.05283 7.08214 5.13713 8.53929 5.03011 8.625C4.61272 8.95714 4.16322 9.24643 3.78864 9.63214C3.45687 9.96429 3.1358 10.3071 2.83614 10.6607C2.23681 11.3893 1.7231 12.1821 1.30572 13.0286C0.449535 14.7429 0.0107422 16.6393 0.0107422 18.5464C0.0107422 22.0393 1.46625 25.1893 3.78864 27.4607L3.95988 27.6429L4.97659 28.4143C5.09432 28.5 7.01003 29.9464 9.83542 30.6536C9.99596 30.8464 10.1672 31.0393 10.3491 31.2214C11.8367 32.7 13.7096 33.6321 15.7538 33.9429C17.5839 35.8714 20.1524 37.0821 23.0099 37.0821C25.8674 37.0821 28.436 35.8714 30.2554 33.9429C32.2995 33.6429 34.1831 32.7107 35.6707 31.2214C35.8633 31.0286 36.0453 30.8143 36.2165 30.6107C37.0406 30.3857 37.854 30.0964 38.6245 29.7321C40.4653 28.8643 42.0921 27.5679 43.3442 25.95C43.8365 25.3071 44.2646 24.6107 44.6178 23.8821C45.4098 22.2214 45.8271 20.3893 45.8271 18.5464C45.8057 15.9643 45.0031 13.3929 43.5048 11.2929ZM16.4922 4.46786C16.7277 4.44643 16.9524 4.43571 17.1879 4.43571C18.9002 4.43571 20.527 4.95 21.9076 5.91429C21.1049 6.72857 20.4842 7.68214 20.024 8.7C18.5471 7.5 16.9631 6.71786 15.2829 6.32143C15.6146 5.64643 16.0106 5.025 16.4922 4.46786ZM22.935 6.85714C22.9564 6.83571 22.9778 6.825 22.9992 6.80357C23.0206 6.825 23.042 6.83571 23.0634 6.85714C23.834 7.62857 24.4012 8.51786 24.8079 9.51429C24.1444 10.1464 23.5022 10.8643 22.8922 11.6571C22.325 10.9179 21.7363 10.2643 21.1263 9.66429C21.5223 8.625 22.1323 7.66071 22.935 6.85714ZM25.9102 8.57143C25.45 7.58571 24.8614 6.68571 24.0908 5.90357C25.4714 4.95 27.0982 4.425 28.8105 4.425C29.046 4.425 29.2707 4.43571 29.4955 4.45714C29.9664 5.01429 30.3624 5.625 30.6834 6.28929C28.9818 6.65357 27.3871 7.41429 25.9102 8.57143ZM32.1925 6.06429C32.0212 5.66786 31.8286 5.29286 31.6145 4.91786C32.3744 5.19643 33.0914 5.57143 33.7443 6.06429C33.2413 6.03214 32.7276 6.03214 32.1925 6.06429ZM27.9544 3.06429C26.1457 3.225 24.444 3.87857 22.9992 4.96071C21.5544 3.86786 19.842 3.21429 18.0227 3.05357C19.4247 2.04643 21.137 1.44643 22.9992 1.44643C24.8507 1.45714 26.5524 2.05714 27.9544 3.06429ZM14.3732 4.92857C14.1591 5.29286 13.9665 5.67857 13.7953 6.075C13.2816 6.03214 12.7785 6.01071 12.2969 6.03214C12.9284 5.57143 13.6347 5.19643 14.3732 4.92857ZM14.2019 7.52143C17.1023 7.95 19.7136 9.72857 21.9932 12.7821L17.8514 17.5821C14.5872 13.7786 9.94245 10.3071 7.04213 9C8.49764 8.19643 11.1732 7.07143 14.2019 7.52143ZM8.97924 25.3821C8.73309 23.4 9.19329 21.3429 10.3812 19.6286C11.3658 20.6036 12.511 21.3214 13.7632 21.7929C12.1257 23.2393 10.4455 24.4607 8.97924 25.3821ZM8.97924 11.7C10.4348 12.6429 12.0829 13.8964 13.6775 15.3321C12.4575 15.8036 11.323 16.5107 10.3812 17.4429C9.41804 16.0714 8.90433 14.4429 8.90433 12.7286C8.90433 12.375 8.92573 12.0429 8.97924 11.7ZM16.8882 18.6214C16.2675 19.35 15.6146 20.0464 14.9297 20.7C13.5812 20.325 12.3398 19.6179 11.323 18.6C11.3016 18.5786 11.2909 18.5571 11.2695 18.5357C11.2909 18.5143 11.3016 18.4929 11.323 18.4821C12.3076 17.4964 13.517 16.8 14.8227 16.4143C15.5504 17.1214 16.2461 17.8607 16.8882 18.6214ZM1.40204 18.5464C1.40204 15.0536 3.05019 11.9679 5.58662 9.93214C6.12174 10.0821 6.84949 10.425 7.69497 10.9071C7.58795 11.4964 7.50233 12.1071 7.50233 12.7286C7.50233 14.8607 8.18727 16.875 9.43944 18.5357C7.78059 20.7536 7.20267 23.5179 7.68427 26.1321C6.77458 26.625 6.01471 26.9679 5.4689 27.1071C2.99667 25.0821 1.40204 21.9964 1.40204 18.5464ZM11.1839 25.5857C12.8642 24.4179 14.4588 23.1214 15.9357 21.6964C16.8026 20.8607 17.616 20.0036 18.3972 19.0929C19.1999 18.1607 20.0026 17.2393 20.8052 16.3071C20.8052 16.2214 21.0835 15.9964 21.137 15.9214C21.2654 15.7714 21.3939 15.6321 21.5116 15.4821C22.4748 14.3679 23.3845 13.2214 24.3049 12.0857C24.9363 11.3143 25.6213 10.5964 26.3811 9.96429C27.7189 8.83929 29.2814 7.99286 30.9938 7.63929C31.1757 7.60714 31.3577 7.575 31.5396 7.54286C34.6433 7.08214 37.3938 8.26072 38.8707 9.09643C36.3128 10.2321 32.1604 13.0607 28.8748 16.5214L28.6393 16.7893L27.8473 17.7C27.3764 18.2464 26.9055 18.7929 26.4239 19.3393C25.5571 20.3464 24.6795 21.3536 23.8126 22.3607C23.4487 22.7786 23.0634 23.175 22.7103 23.6036C22.3678 24 22.0788 24.4393 21.747 24.8464C21.1156 25.6286 20.42 26.3679 19.6601 27.0107C18.3116 28.1571 16.7277 29.025 14.9939 29.4107C14.7906 29.4536 14.5979 29.4857 14.3946 29.5179C11.2695 30 8.49764 28.8429 6.99932 28.0286C8.47624 27.3857 9.85683 26.5071 11.1839 25.5857ZM35.6172 17.4536C34.6326 16.4786 33.466 15.75 32.2032 15.2786C33.8513 13.8321 35.553 12.6 37.0192 11.6893C37.2653 13.6821 36.8051 15.7393 35.6172 17.4536ZM37.0085 25.4036C35.5209 24.4821 33.8085 23.25 32.1496 21.7821C33.466 21.3107 34.6326 20.6036 35.6172 19.6286C36.8051 21.3429 37.2546 23.4107 37.0085 25.4036ZM29.9022 17.4857C30.2553 17.1107 30.6299 16.7357 31.0045 16.3821C32.3744 16.7571 33.6373 17.4536 34.6647 18.4929C34.6861 18.5143 34.6968 18.5357 34.7182 18.5464C34.6968 18.5679 34.6861 18.5893 34.6647 18.6107C33.6373 19.6393 32.4065 20.3143 30.9724 20.7C30.2768 20.025 29.5918 19.3179 28.9604 18.5786L29.9022 17.4857ZM29.4848 32.6143C29.26 32.6357 29.0353 32.6464 28.8105 32.6464C27.0982 32.6464 25.4714 32.1321 24.0908 31.1679C24.8614 30.3857 25.4607 29.4857 25.9102 28.5214C27.3871 29.6786 28.9818 30.4286 30.6727 30.7929C30.3517 31.4571 29.9557 32.0679 29.4848 32.6143ZM23.0527 30.225C23.0313 30.2464 23.0099 30.2571 22.9885 30.2786C22.9671 30.2571 22.9457 30.2464 22.9243 30.225C22.1537 29.4536 21.5544 28.5321 21.1477 27.5464C21.7685 26.9571 22.3785 26.2929 22.9564 25.5536C23.545 26.3036 24.1551 26.9786 24.7972 27.5893C24.4012 28.5643 23.8233 29.4643 23.0527 30.225ZM16.5136 32.6143C16.032 32.0571 15.6361 31.425 15.315 30.7607C17.0059 30.3857 18.5899 29.6357 20.0668 28.4893C20.527 29.475 21.137 30.3857 21.9183 31.1786C20.5377 32.1321 18.9109 32.6571 17.1986 32.6571C16.9631 32.6464 16.7384 32.6357 16.5136 32.6143ZM12.2648 31.0179C12.4682 31.0286 12.6715 31.0393 12.8856 31.0393C13.1852 31.0393 13.4956 31.0286 13.806 30.9964C13.9772 31.4036 14.1805 31.7786 14.4053 32.1536C13.6347 31.8857 12.9177 31.5107 12.2648 31.0179ZM18.0334 34.0179C19.842 33.8571 21.5544 33.2036 22.9992 32.1107C24.444 33.2036 26.1564 33.8571 27.9758 34.0179C26.5738 35.025 24.8614 35.625 22.9992 35.625C21.137 35.625 19.4247 35.025 18.0334 34.0179ZM31.5824 32.1643C31.7965 31.8 31.9998 31.425 32.1711 31.0286C32.4493 31.05 32.7276 31.0607 32.9951 31.0607C33.252 31.0607 33.4981 31.0286 33.7443 31.0179C33.07 31.5107 32.353 31.8964 31.5824 32.1643ZM31.561 29.5607C28.7035 29.1429 26.1243 27.4071 23.8875 24.45L28.04 19.65C31.4112 23.5393 36.0988 26.775 38.8814 28.0179C37.4045 28.8321 34.6647 30.0107 31.561 29.5607ZM40.3797 27.075C39.8767 26.9357 39.1596 26.625 38.3035 26.1643C38.7958 23.55 38.2178 20.775 36.559 18.5464C38.2178 16.3286 38.7958 13.5536 38.3142 10.9393C39.1489 10.4893 39.866 10.1679 40.369 10.0286C42.8305 12.0536 44.4144 15.1071 44.4144 18.5464C44.4037 21.9857 42.8412 25.0393 40.3797 27.075Z" fill="#2D6DAB"/>
<path d="M229.767 47.8179H230.719V41.9037H233.031V41.0679H227.455V41.9037H229.767V47.8179ZM223.26 41.0679V46.1037L219.215 41.0679H218.423V47.8179H219.386V42.7822L223.431 47.8179H224.223V41.0679H223.26ZM210.76 46.9822V44.8072H214.142V43.9822H210.76V41.9037H214.559V41.0679H209.797V47.8179H214.687V46.9822H210.76ZM205.591 47.8179L205.58 41.0679H204.788L202.016 45.8144L199.201 41.0679H198.409V47.8179H199.33V42.9322L201.77 47.0037H202.209L204.649 42.9001L204.659 47.8179H205.591V47.8179ZM190.746 46.9822V44.8072H194.128V43.9822H190.746V41.9037H194.546V41.0679H189.783V47.8179H194.674V46.9822H190.746ZM184.839 46.6072C184.357 46.9179 183.822 47.0465 183.255 47.0465C181.703 47.0465 180.579 45.9322 180.579 44.4537C180.579 42.9537 181.703 41.8608 183.266 41.8608C184.025 41.8608 184.668 42.1072 185.224 42.6429L185.823 42.0429C185.203 41.3572 184.304 41.0037 183.233 41.0037C181.147 41.0037 179.616 42.4608 179.616 44.4537C179.616 46.4465 181.136 47.9037 183.212 47.9037C184.154 47.9037 185.096 47.6144 185.77 47.0465V44.4108H184.85V46.6072H184.839ZM172.082 45.3644L173.537 42.0537L174.993 45.3644H172.082ZM176.074 47.8179H177.09L174.03 41.0679H173.077L170.027 47.8179H171.022L171.761 46.1251H175.346L176.074 47.8179ZM165.864 41.0679V46.1037L161.818 41.0679H161.026V47.8179H161.989V42.7822L166.035 47.8179H166.827V41.0679H165.864ZM152.85 45.3644L154.305 42.0537L155.761 45.3644H152.85ZM156.842 47.8179H157.858L154.798 41.0679H153.845L150.795 47.8179H151.79L152.529 46.1251H156.114L156.842 47.8179ZM147.606 47.8179L147.595 41.0679H146.803L144.031 45.8144L141.216 41.0679H140.424V47.8179H141.345V42.9322L143.785 47.0037H144.224L146.664 42.9001L146.675 47.8179H147.606V47.8179ZM130.493 41.0679V43.9715H126.618V41.0679H125.655V47.8179H126.618V44.8072H130.493V47.8179H131.456V41.0679H130.493ZM119.159 47.8179H120.112V41.9037H122.423V41.0679H116.847V41.9037H119.159V47.8179ZM110.544 47.8179H115.156V46.9822H111.507V41.0679H110.544V47.8179ZM102.367 45.3644L103.823 42.0537L105.278 45.3644H102.367ZM106.359 47.8179H107.376L104.315 41.0679H103.362L100.312 47.8179H101.308L102.046 46.1251H105.631L106.359 47.8179ZM93.6448 46.9822V44.8072H97.0267V43.9822H93.6448V41.9037H97.4441V41.0679H92.6816V47.8179H97.5725V46.9822H93.6448ZM88.4114 41.0679L86.5492 46.5858L84.687 41.0679H83.7987L81.9044 46.5537L80.085 41.0679H79.0897L81.3479 47.8179H82.3753L84.2268 42.4287L86.0676 47.8179H87.0843L89.3425 41.0679H88.4114Z" fill="#484848"/>
<path d="M256.533 8.89286V10.575L254.371 10.95V28.1786H251.76L242.503 13.2857L242.428 13.3071V26.1429L244.59 26.5179V28.1893H237.665V26.5179L239.827 26.1429V10.95L237.665 10.575V8.89286H239.827H242.438L251.696 23.7643L251.771 23.7429V10.95L249.609 10.575V8.89286H254.371H256.533ZM218.797 20.5286H224.908L221.922 12.2464H221.847L218.797 20.5286ZM212.622 26.5179L214.056 26.3143L220.788 8.89286H223.024L229.638 26.3143L231.051 26.5179V28.1893H225.518V26.5179L226.974 26.2714L225.711 22.7143H217.994L216.689 26.2607L218.144 26.5071V28.1786H212.622V26.5179ZM201.47 12.7393L201.406 12.7286L195.177 28.1893H193.443L187.215 12.7393L187.15 12.75L187.418 20.55V26.1429L189.58 26.5179V28.1893H182.656V26.5179L184.817 26.1429V10.95L182.656 10.575V8.89286H184.817H188.156L194.3 24.5679H194.374L200.475 8.89286H205.976V10.575L203.814 10.95V26.1429L205.976 26.5179V28.1893H199.062V26.5179L201.224 26.1429V20.55L201.47 12.7393ZM164.076 17.5179H167.501C168.957 17.5179 170.016 17.2393 170.68 16.6821C171.343 16.125 171.675 15.3107 171.675 14.25C171.675 13.2321 171.354 12.4286 170.722 11.8393C170.091 11.25 169.106 10.95 167.769 10.95H164.076V17.5179ZM167.769 8.91429C169.866 8.91429 171.482 9.375 172.595 10.3071C173.719 11.2393 174.276 12.5571 174.276 14.2714C174.276 15.2036 174.019 16.0393 173.494 16.7571C172.97 17.4857 172.232 18.0536 171.258 18.4607C172.306 18.8036 173.066 19.3607 173.526 20.1429C173.987 20.925 174.222 21.8786 174.222 23.0143V24.5679C174.222 25.1571 174.297 25.5964 174.447 25.875C174.597 26.1536 174.843 26.325 175.185 26.3786L175.817 26.4536V28.1571H174.415C173.398 28.1571 172.681 27.8036 172.253 27.0964C171.825 26.3893 171.611 25.5321 171.611 24.525V23.025C171.611 21.975 171.311 21.1286 170.701 20.4964C170.091 19.8643 169.278 19.5429 168.25 19.5429H164.066V26.1429L166.228 26.5179V28.1893H159.303V26.5179L161.465 26.1429V10.95L159.303 10.575V8.91429H161.465H167.769ZM137.053 28.1893V26.5179L139.215 26.1429V10.95L137.053 10.575V8.89286H151.844V13.5321H149.607L149.393 10.95H141.816V17.1857H149.19V19.2429H141.816V26.1429H149.553L149.767 23.5607H151.994V28.1786H137.053V28.1893ZM130.632 8.89286V13.1571H128.406L128.202 10.95H123.932V26.1429L126.094 26.5179V28.1893H119.17V26.5179L121.332 26.1429V10.95H117.04L116.858 13.1571H114.621V8.89286H130.632ZM108.446 8.89286V13.1571H106.22L106.017 10.95H101.746V26.1429L103.908 26.5179V28.1893H96.9839V26.5179L99.1457 26.1429V10.95H94.8541L94.6722 13.1571H92.4354V8.89286H108.446ZM79.1325 10.575V8.89286H86.0569V10.575L83.895 10.95V26.1429L86.0569 26.5179V28.1893H79.1325V26.5179L81.2944 26.1429V10.95L79.1325 10.575ZM71.1379 26.0036C70.5707 26.5929 69.7359 27.15 68.6336 27.675C67.5312 28.2 66.0971 28.4679 64.3313 28.4679C61.752 28.4679 59.6544 27.5679 58.0276 25.7571C56.4009 23.9464 55.5875 21.6 55.5875 18.7071V18.3857C55.5875 15.4821 56.3902 13.125 58.0062 11.325C59.6116 9.525 61.752 8.625 64.4276 8.625C65.8617 8.625 67.1139 8.85 68.1948 9.28929C69.2757 9.73929 70.1854 10.3286 70.9239 11.0571V14.55H69.0938L68.4623 11.8929C68.0343 11.5393 67.5098 11.25 66.8891 11.0143C66.2684 10.7786 65.5406 10.6714 64.6845 10.6714C62.5975 10.6714 61.0029 11.3893 59.8791 12.8143C58.7554 14.2393 58.1882 16.0929 58.1882 18.3536V18.6964C58.1882 21 58.734 22.8643 59.8256 24.2893C60.9173 25.7143 62.4156 26.4214 64.3313 26.4214C65.3801 26.4214 66.2363 26.3143 66.9105 26.0893C67.5848 25.8643 68.1199 25.6286 68.5266 25.3607V21.1393L65.3694 21.0107V19.0929H71.1379V26.0036V26.0036Z" fill="#2D6DAB"/>
</g>
<defs>
<clipPath id="clip0_37_10">
<rect width="256.533" height="48" fill="white"/>
</clipPath>
</defs>
</svg>
