<svg width="117" height="80" viewBox="0 0 117 80" fill="none" xmlns="http://www.w3.org/2000/svg">
<path d="M2.03385 32.3782C1.64578 30.6154 1.40898 30.3457 0.838377 30.1961L0.271057 30.0317V29.6123H5.86201V30.0317L5.41309 30.1204C4.45605 30.3293 4.54649 31.2715 4.81617 32.587L7.17753 44.305L8.91073 34.978L8.28586 31.7796C8.04742 30.6286 7.95698 30.2997 7.36006 30.1353L6.97198 30.0465V29.6271H12.4429V30.0465L11.7851 30.1665C10.7985 30.3309 10.9629 31.4212 11.1882 32.587L13.4608 44.3067L15.7021 33.2152C16.1214 30.913 15.9109 30.3457 15.0147 30.1665L14.3866 30.0465V29.6271H18.4976V30.0465L17.9303 30.2109C17.2133 30.3753 17.0341 30.9575 16.6147 32.9603L12.9675 50.3581H12.1897L9.39418 36.7868L6.85359 50.3581H5.86695L2.03385 32.3782ZM31.2713 49.6444H32.4667C35.0073 49.6444 35.7555 46.6236 36.0515 43.4286H36.5004V50.243H21.2075V49.8253L21.8324 49.7052C23.1183 49.4668 23.1183 49.1083 22.7895 47.3143L22.2238 44.6241H18.5469L18.1588 46.6582C17.7099 48.9603 17.95 49.5276 18.8462 49.7069L19.4711 49.8269V50.2446H15.3173V49.8269L15.8106 49.6625C16.6328 49.424 16.8269 48.9455 17.2462 46.9114L20.8935 29.5137H21.7897L25.6162 47.4804C26.0043 49.3336 26.1835 49.7217 27.2606 49.7217C28.1864 49.7217 28.5152 49.2284 28.5152 48.347V31.482C28.5152 30.6598 28.2472 30.3753 27.6486 30.2257L26.9909 30.0613V29.6436H32.9107V30.0925L32.0885 30.2569C31.4916 30.377 31.2219 30.645 31.2219 31.482L31.2713 49.6444ZM18.6867 43.9334H22.0939L20.3607 35.4434L18.6867 43.9334ZM41.4057 49.6444H42.6012C45.1418 49.6444 45.89 46.6236 46.186 43.4286H46.6349V50.243H37.1582V49.8253L37.816 49.6608C38.4129 49.4964 38.6826 49.2119 38.6826 48.3749V31.4837C38.6826 30.6615 38.4145 30.377 37.816 30.2273L37.1582 30.0629V29.6436H43.078V30.0925L42.2558 30.2569C41.6589 30.377 41.3892 30.645 41.3892 31.482L41.4057 49.6444ZM56.3697 50.3614C54.6365 50.3614 54.038 49.1659 53.4706 49.1659C53.1418 49.1659 52.7537 49.2547 52.4544 50.2413H52.0959V43.4121H52.5448C52.9033 47.2682 54.3537 49.6888 56.327 49.6888C57.6721 49.6888 58.5995 48.4637 58.5995 46.2356C58.5995 41.572 51.9331 39.5692 51.9331 34.3959C51.9331 31.6004 53.3687 29.4956 55.9093 29.4956C57.5537 29.4956 57.9122 30.571 58.5995 30.571C58.9876 30.571 59.2573 30.2717 59.4217 29.614H59.7802V36.43H59.3313C58.9728 32.9768 58.0454 30.1517 55.878 30.1517C54.3981 30.1517 54.0692 31.6317 54.0692 32.6627C54.0692 37.1026 60.7356 38.6417 60.7356 44.8592C60.7339 48.0296 59.0008 50.3301 56.3401 50.3301L56.3697 50.3614ZM67.3872 48.3585C67.3872 49.1807 67.6552 49.5096 68.2538 49.6444L69.0316 49.8088V50.2265H63.0049V49.8088L63.7827 49.6444C64.3796 49.48 64.6493 49.1955 64.6493 48.3585V30.2273H63.9915C62.1383 30.2273 61.3901 33.2465 61.196 36.4432H60.7471V29.6321H71.3008V36.4481H70.8519C70.6431 33.2497 69.8949 30.2323 68.0565 30.2323H67.3987V48.3453L67.3872 48.3585ZM71.9586 49.8384L72.6164 49.674C73.2133 49.5096 73.483 49.2251 73.483 48.3881V31.5165C73.483 30.6943 73.2149 30.4099 72.6164 30.2602L71.9586 30.0958V29.6765H77.668C80.2086 29.6765 82.5683 31.2913 82.5683 34.6689C82.5683 37.2703 81.3432 39.1087 78.8618 39.7665C81.5816 40.2598 81.5816 41.5753 81.8513 44.9957L82.0158 47.6267C82.1062 49.1067 82.1802 49.4356 82.5831 49.4356C83.032 49.4356 83.2112 48.4193 83.2112 47.4327V46.9394H83.7046V47.6267C83.7046 49.2711 83.3461 50.4222 81.6425 50.4222C79.9685 50.4222 79.1759 49.4652 79.0706 46.0284L78.9062 42.2018C78.847 40.393 78.4129 40.1085 77.5315 40.1085H76.1272V48.4193C76.1272 49.2415 76.3952 49.5704 76.9938 49.7348L77.6515 49.8993V50.317H71.8961L71.9586 49.8384ZM76.1732 39.4656H77.1598C78.8338 39.4656 79.6708 39.0166 79.6708 35.0257C79.6708 31.0347 78.5642 30.2569 77.3687 30.2569H76.1732V39.4656ZM88.1773 49.6608H90.2394C92.9296 49.6608 93.4394 46.6121 93.7962 43.445H94.2451V50.2594H83.9315V49.8582L84.5892 49.6937C85.1862 49.5293 85.4558 49.2448 85.4558 48.4078V31.5133C85.4558 30.6911 85.1878 30.3622 84.5892 30.2273L83.9315 30.0629V29.6436H93.9623V36.4596H93.5134C93.1845 33.2612 92.5564 30.2438 90.2542 30.2438H88.1921V39.2419L89.1491 39.2123C90.4318 39.1219 90.9136 38.0169 91.2408 35.4302H91.6898V43.741H91.2408C90.9711 40.4851 90.4647 39.9589 89.1031 39.8849L88.1773 39.8553V49.6608ZM99.2688 49.6608H101.331C104.021 49.6608 104.529 46.6121 104.888 43.445H105.337V50.2594H95.0262V49.8582L95.684 49.6937C96.2809 49.5293 96.5506 49.2448 96.5506 48.4078V31.5133C96.5506 30.6911 96.2809 30.3622 95.684 30.2273L95.0262 30.0629V29.6436H105.057V36.4596H104.608C104.279 33.2612 103.651 30.2438 101.349 30.2438H99.2869V39.2419L100.244 39.2123C101.53 39.1219 102.007 38.0169 102.336 35.4302H102.799V43.741H102.35C102.082 40.4818 101.573 39.9589 100.213 39.8849L99.2869 39.8553L99.2688 49.6608ZM112.631 48.3749C112.631 49.3007 112.901 49.48 113.498 49.6312L114.424 49.8401V50.2578H108.265V49.8401L109.043 49.6756C109.64 49.5112 109.91 49.2267 109.91 48.3897V30.2273H109.252C107.399 30.2273 106.65 33.2465 106.456 36.4432H106.008V29.6321H116.56V36.4481H116.111C115.902 33.2497 115.154 30.2323 113.315 30.2323H112.657L112.631 48.3749ZM47.4439 18.7165C47.4439 19.6423 47.712 19.8216 48.3105 19.9729L49.2363 20.1817V20.5994H43.078V20.1817L43.8558 20.0173C44.4528 19.8528 44.7224 19.5683 44.7224 18.7313V0.600206H44.0647C42.2114 0.600206 41.4665 3.61932 41.2692 6.81603H40.8055V0.00328934H51.3576V6.81932H50.9087C50.6998 3.62097 49.9516 0.603494 48.1132 0.603494H47.4554L47.4439 18.7165ZM52.0154 20.1965L52.6731 20.0321C53.27 19.8676 53.5397 19.5831 53.5397 18.7461V1.84173C53.5397 1.01953 53.2717 0.735046 52.6731 0.585406L52.0154 0.420966V0H57.8447V0.419322L57.1574 0.583762C56.5901 0.748201 56.2612 0.97184 56.2612 1.80884V9.66907H60.7751V1.84173C60.7751 1.01953 60.4462 0.76629 59.8789 0.61665L59.1915 0.45221V0H65.0209V0.419322L64.3631 0.583762C63.7662 0.748201 63.4965 1.00308 63.4965 1.84008V18.6705C63.4965 19.4927 63.7646 19.8216 64.3631 19.986L65.0209 20.1505V20.5681H59.1899V20.1505L59.8772 19.986C60.4445 19.8216 60.7734 19.4927 60.7734 18.6705V10.3926H56.2628V18.733C56.2628 19.5552 56.5917 19.8841 57.159 20.0485L57.8464 20.2129V20.6306H52.0203L52.0154 20.1965ZM69.9393 20.0321H72.0014C74.6916 20.0321 75.1997 16.9834 75.5582 13.8162H76.0071V20.6306H65.6935V20.2129L66.3512 20.0485C66.9481 19.8841 67.2178 19.5996 67.2178 18.7626V1.88613C67.2178 1.06393 66.9498 0.735047 66.3512 0.600206L65.6935 0.435766V0H75.7243V6.81603H75.2754C74.9465 3.61768 74.3183 0.600206 72.0194 0.600206H69.9574V9.59836L70.9144 9.56876C72.2003 9.47831 72.6772 8.37328 73.0061 5.78664H73.455V14.0974H73.0061C72.7381 10.8415 72.2283 10.3153 70.8684 10.2413L69.9426 10.2117L69.9393 20.0321ZM26.5041 75.08C26.5041 78.28 24.8893 79.9523 22.3932 79.9523C20.1518 79.9523 18.8363 78.1435 18.8659 76.1258C18.8988 74.5718 20.017 73.794 20.9576 73.9141C21.6154 74.0029 22.2731 74.4814 22.1827 75.5289C22.0922 77.0088 20.4774 76.9644 20.4182 77.8902C20.359 78.4592 21.1056 79.2945 22.0626 79.2945C23.7366 79.2945 23.7366 77.1568 23.7366 75.5585V61.0598C23.7366 60.2376 23.4669 59.9844 22.8108 59.8347L22.0643 59.6703V59.251H27.9545V59.6703L27.2967 59.8347C26.6998 59.9992 26.4745 60.2541 26.4745 61.0911L26.5041 75.08ZM33.4698 79.9803C29.9722 79.9803 28.2686 75.2576 28.2686 69.517C28.2686 63.8076 29.913 59.0849 33.4698 59.0849C36.9971 59.0849 38.699 63.8076 38.699 69.517C38.699 75.2724 37.0842 79.9803 33.4698 79.9803ZM33.4698 59.7542C31.9899 59.7542 31.2285 60.9496 31.2285 69.3805C31.2285 78.0958 31.9159 79.3044 33.4698 79.3044C35.0238 79.3044 35.7424 78.0777 35.7424 69.3196C35.7424 60.9332 35.0254 59.7542 33.4698 59.7542ZM50.5387 79.3949L51.1964 79.2304C51.7934 79.066 52.063 78.7815 52.063 77.9445V61.0894C52.063 60.1028 51.6141 59.7443 50.5831 59.7443C49.2676 59.7443 48.9387 60.3429 48.9387 62.0464V75.0372C48.9387 78.2652 47.7876 80 45.025 80C42.1555 80 40.4815 78.2668 40.4815 75.1276V61.0894C40.4815 60.2672 40.2727 59.9827 39.6593 59.8331L39.0016 59.6687V59.2312H44.951V59.6506L44.1288 59.815C43.4711 59.9794 43.203 60.2031 43.203 61.0401V75.3003C43.203 78.1994 44.0252 78.9476 45.5644 78.9476C47.3732 78.9476 48.105 77.9313 48.105 75.001V63.1038C48.105 60.5928 48.0721 59.9794 46.9999 59.7558L46.4326 59.6358V59.2164H56.2382C58.7788 59.2164 61.1385 60.8312 61.1385 64.2088C61.1385 66.8103 59.9134 68.6487 57.432 69.3065C60.1518 69.7998 60.1518 71.1153 60.4215 74.5357L60.586 77.1667C60.6764 78.6467 60.7504 78.9755 61.1533 78.9755C61.6022 78.9755 61.7814 77.9593 61.7814 76.9727V76.4793H62.2748V77.1667C62.2748 78.8111 61.9163 79.9622 60.2127 79.9622C58.5387 79.9622 57.7461 79.0051 57.6408 75.5683L57.4764 71.7418C57.4172 69.933 56.9831 69.6485 56.1017 69.6485H54.6974V77.9593C54.6974 78.7815 54.9654 79.1104 55.564 79.2748L56.2217 79.4393V79.8569H50.4663V79.4393L50.5387 79.3949ZM54.7533 69.022H55.7399C57.4139 69.022 58.2509 68.5731 58.2509 64.5821C58.2509 60.5912 57.1442 59.8134 55.9487 59.8134H54.7533V69.022ZM62.8552 59.7542L62.4375 59.6341V59.2312H66.3512L71.7021 72.8025V63.0265C71.7021 60.8148 71.7613 60.037 70.1777 59.7673L69.6844 59.6473V59.228H74.1243V59.6473L73.7066 59.7673C72.4207 60.0666 72.5111 61.1124 72.5111 63.2206V79.8421H71.5541L64.8137 63.362V76.037C64.8137 78.4576 64.8137 79.1614 66.7261 79.4146V79.8323H62.4211V79.4146L62.9605 79.3241C64.0655 79.1137 64.0359 78.0382 64.0359 75.8709V61.5646C63.5426 60.5188 63.3173 59.9498 62.8388 59.7558L62.8552 59.7542ZM89.1623 79.2156H90.3578C92.8984 79.2156 93.6466 76.1949 93.9426 72.9998H94.3915V79.8142H79.1479V79.3965L79.7777 79.2929C81.0636 79.0545 81.0932 78.696 80.7348 76.9019L80.1674 74.2117H76.4889L76.0992 76.2458C75.6503 78.548 75.8904 79.1153 76.7866 79.2945L77.4114 79.4146V79.8323H73.256V79.4146L73.7494 79.2502C74.5716 79.0117 74.7656 78.5332 75.1849 76.4991L78.8322 59.1013H79.73L83.5549 77.068C83.9446 78.9213 84.0926 79.3093 85.1697 79.3093C86.0955 79.3093 86.426 78.816 86.426 77.9346V61.0894C86.426 60.2672 86.158 59.9827 85.5594 59.8331L84.9017 59.6687V59.251H90.8215V59.6999L89.9993 59.8643C89.4024 59.9844 89.1327 60.2524 89.1327 61.0894L89.1623 79.2156ZM76.6073 73.5375H80.0145L78.2978 65.036L76.6073 73.5375Z" fill="white"/>
</svg>
